<?xml version="1.0" encoding="UTF-8" standalone="no"?>
<!DOCTYPE svg PUBLIC "-//W3C//DTD SVG 1.1//EN"
 "http://www.w3.org/Graphics/SVG/1.1/DTD/svg11.dtd">
<!-- Generated by graphviz version 2.43.0 (0)
 -->
<!-- Title: snakemake_dag Pages: 1 -->
<svg width="383pt" height="188pt"
 viewBox="0.00 0.00 383.00 188.00" xmlns="http://www.w3.org/2000/svg" xmlns:xlink="http://www.w3.org/1999/xlink">
<g id="graph0" class="graph" transform="scale(1 1) rotate(0) translate(4 184)">
<title>snakemake_dag</title>
<polygon fill="white" stroke="transparent" points="-4,4 -4,-184 379,-184 379,4 -4,4"/>
<!-- mags -->
<g id="node1" class="node">
<title>mags</title>
<path fill="none" stroke="#56c9d8" stroke-width="2" d="M288,-180C288,-180 258,-180 258,-180 252,-180 246,-174 246,-168 246,-168 246,-156 246,-156 246,-150 252,-144 258,-144 258,-144 288,-144 288,-144 294,-144 300,-150 300,-156 300,-156 300,-168 300,-168 300,-174 294,-180 288,-180"/>
<text text-anchor="middle" x="273" y="-159.5" font-family="sans" font-size="10.00">mags</text>
</g>
<!-- checkm2 -->
<g id="node2" class="node">
<title>checkm2</title>
<path fill="none" stroke="#d85656" stroke-width="2" d="M189.5,-108C189.5,-108 152.5,-108 152.5,-108 146.5,-108 140.5,-102 140.5,-96 140.5,-96 140.5,-84 140.5,-84 140.5,-78 146.5,-72 152.5,-72 152.5,-72 189.5,-72 189.5,-72 195.5,-72 201.5,-78 201.5,-84 201.5,-84 201.5,-96 201.5,-96 201.5,-102 195.5,-108 189.5,-108"/>
<text text-anchor="middle" x="171" y="-87.5" font-family="sans" font-size="10.00">checkm2</text>
</g>
<!-- mags&#45;&gt;checkm2 -->
<g id="edge1" class="edge">
<title>mags&#45;&gt;checkm2</title>
<path fill="none" stroke="grey" stroke-width="2" d="M248.05,-143.88C234.96,-134.89 218.74,-123.76 204.56,-114.03"/>
<polygon fill="grey" stroke="grey" stroke-width="2" points="206.27,-110.96 196.05,-108.19 202.31,-116.73 206.27,-110.96"/>
</g>
<!-- annotate -->
<g id="node6" class="node">
<title>annotate</title>
<path fill="none" stroke="#d8cb56" stroke-width="2" d="M291,-108C291,-108 255,-108 255,-108 249,-108 243,-102 243,-96 243,-96 243,-84 243,-84 243,-78 249,-72 255,-72 255,-72 291,-72 291,-72 297,-72 303,-78 303,-84 303,-84 303,-96 303,-96 303,-102 297,-108 291,-108"/>
<text text-anchor="middle" x="273" y="-93" font-family="sans" font-size="10.00">dram</text>
<text text-anchor="middle" x="273" y="-82" font-family="sans" font-size="10.00">annotate</text>
</g>
<!-- mags&#45;&gt;annotate -->
<g id="edge6" class="edge">
<title>mags&#45;&gt;annotate</title>
<path fill="none" stroke="grey" stroke-width="2" d="M273,-143.7C273,-135.98 273,-126.71 273,-118.11"/>
<polygon fill="grey" stroke="grey" stroke-width="2" points="276.5,-118.1 273,-108.1 269.5,-118.1 276.5,-118.1"/>
</g>
<!-- gtdbtk -->
<g id="node8" class="node">
<title>gtdbtk</title>
<path fill="none" stroke="#afd856" stroke-width="2" d="M363,-108C363,-108 333,-108 333,-108 327,-108 321,-102 321,-96 321,-96 321,-84 321,-84 321,-78 327,-72 333,-72 333,-72 363,-72 363,-72 369,-72 375,-78 375,-84 375,-84 375,-96 375,-96 375,-102 369,-108 363,-108"/>
<text text-anchor="middle" x="348" y="-87.5" font-family="sans" font-size="10.00">gtdbtk</text>
</g>
<!-- mags&#45;&gt;gtdbtk -->
<g id="edge5" class="edge">
<title>mags&#45;&gt;gtdbtk</title>
<path fill="none" stroke="grey" stroke-width="2" d="M291.54,-143.7C300.8,-135.05 312.16,-124.45 322.26,-115.03"/>
<polygon fill="grey" stroke="grey" stroke-width="2" points="324.75,-117.49 329.67,-108.1 319.98,-112.37 324.75,-117.49"/>
</g>
<!-- drep1 -->
<g id="node3" class="node">
<title>drep1</title>
<path fill="none" stroke="#5692d8" stroke-width="2" d="M60,-36C60,-36 12,-36 12,-36 6,-36 0,-30 0,-24 0,-24 0,-12 0,-12 0,-6 6,0 12,0 12,0 60,0 60,0 66,0 72,-6 72,-12 72,-12 72,-24 72,-24 72,-30 66,-36 60,-36"/>
<text text-anchor="middle" x="36" y="-21" font-family="sans" font-size="10.00">drep</text>
<text text-anchor="middle" x="36" y="-10" font-family="sans" font-size="10.00">S_ani=0.95</text>
</g>
<!-- checkm2&#45;&gt;drep1 -->
<g id="edge2" class="edge">
<title>checkm2&#45;&gt;drep1</title>
<path fill="none" stroke="grey" stroke-width="2" d="M140.37,-73.12C121.88,-63.53 98.08,-51.19 77.87,-40.71"/>
<polygon fill="grey" stroke="grey" stroke-width="2" points="79.36,-37.54 68.87,-36.04 76.14,-43.75 79.36,-37.54"/>
</g>
<!-- drep2 -->
<g id="node4" class="node">
<title>drep2</title>
<path fill="none" stroke="#5692d8" stroke-width="2" d="M150,-36C150,-36 102,-36 102,-36 96,-36 90,-30 90,-24 90,-24 90,-12 90,-12 90,-6 96,0 102,0 102,0 150,0 150,0 156,0 162,-6 162,-12 162,-12 162,-24 162,-24 162,-30 156,-36 150,-36"/>
<text text-anchor="middle" x="126" y="-21" font-family="sans" font-size="10.00">drep</text>
<text text-anchor="middle" x="126" y="-10" font-family="sans" font-size="10.00">S_ani=0.98</text>
</g>
<!-- checkm2&#45;&gt;drep2 -->
<g id="edge3" class="edge">
<title>checkm2&#45;&gt;drep2</title>
<path fill="none" stroke="grey" stroke-width="2" d="M159.88,-71.7C154.64,-63.56 148.3,-53.69 142.52,-44.7"/>
<polygon fill="grey" stroke="grey" stroke-width="2" points="145.35,-42.62 137,-36.1 139.46,-46.41 145.35,-42.62"/>
</g>
<!-- drep3 -->
<g id="node5" class="node">
<title>drep3</title>
<path fill="none" stroke="#5692d8" stroke-width="2" d="M240,-36C240,-36 192,-36 192,-36 186,-36 180,-30 180,-24 180,-24 180,-12 180,-12 180,-6 186,0 192,0 192,0 240,0 240,0 246,0 252,-6 252,-12 252,-12 252,-24 252,-24 252,-30 246,-36 240,-36"/>
<text text-anchor="middle" x="216" y="-21" font-family="sans" font-size="10.00">drep</text>
<text text-anchor="middle" x="216" y="-10" font-family="sans" font-size="10.00">S_ani=0.99</text>
</g>
<!-- checkm2&#45;&gt;drep3 -->
<g id="edge4" class="edge">
<title>checkm2&#45;&gt;drep3</title>
<path fill="none" stroke="grey" stroke-width="2" d="M182.12,-71.7C187.36,-63.56 193.7,-53.69 199.48,-44.7"/>
<polygon fill="grey" stroke="grey" stroke-width="2" points="202.54,-46.41 205,-36.1 196.65,-42.62 202.54,-46.41"/>
</g>
<!-- distill -->
<g id="node7" class="node">
<title>distill</title>
<path fill="none" stroke="#70d856" stroke-width="2" d="M312,-36C312,-36 282,-36 282,-36 276,-36 270,-30 270,-24 270,-24 270,-12 270,-12 270,-6 276,0 282,0 282,0 312,0 312,0 318,0 324,-6 324,-12 324,-12 324,-24 324,-24 324,-30 318,-36 312,-36"/>
<text text-anchor="middle" x="297" y="-21" font-family="sans" font-size="10.00">dram</text>
<text text-anchor="middle" x="297" y="-10" font-family="sans" font-size="10.00">distill</text>
</g>
<!-- annotate&#45;&gt;distill -->
<g id="edge7" class="edge">
<title>annotate&#45;&gt;distill</title>
<path fill="none" stroke="grey" stroke-width="2" d="M278.93,-71.7C281.61,-63.9 284.83,-54.51 287.8,-45.83"/>
<polygon fill="grey" stroke="grey" stroke-width="2" points="291.2,-46.7 291.14,-36.1 284.58,-44.43 291.2,-46.7"/>
</g>
</g>
</svg>
