<?xml version="1.0" encoding="UTF-8" standalone="no"?>
<!DOCTYPE svg PUBLIC "-//W3C//DTD SVG 1.1//EN"
 "http://www.w3.org/Graphics/SVG/1.1/DTD/svg11.dtd">
<!-- Generated by graphviz version 2.43.0 (0)
 -->
<!-- Title: snakemake_dag Pages: 1 -->
<svg width="415pt" height="260pt"
 viewBox="0.00 0.00 414.50 260.00" xmlns="http://www.w3.org/2000/svg" xmlns:xlink="http://www.w3.org/1999/xlink">
<g id="graph0" class="graph" transform="scale(1 1) rotate(0) translate(4 256)">
<title>snakemake_dag</title>
<polygon fill="white" stroke="transparent" points="-4,4 -4,-256 410.5,-256 410.5,4 -4,4"/>
<!-- mags -->
<g id="node1" class="node">
<title>mags</title>
<path fill="none" stroke="#56c9d8" stroke-width="2" d="M220.5,-252C220.5,-252 190.5,-252 190.5,-252 184.5,-252 178.5,-246 178.5,-240 178.5,-240 178.5,-228 178.5,-228 178.5,-222 184.5,-216 190.5,-216 190.5,-216 220.5,-216 220.5,-216 226.5,-216 232.5,-222 232.5,-228 232.5,-228 232.5,-240 232.5,-240 232.5,-246 226.5,-252 220.5,-252"/>
<text text-anchor="middle" x="205.5" y="-231.5" font-family="sans" font-size="10.00">mags</text>
</g>
<!-- checkm2 -->
<g id="node2" class="node">
<title>checkm2</title>
<path fill="none" stroke="#d85656" stroke-width="2" d="M49,-180C49,-180 12,-180 12,-180 6,-180 0,-174 0,-168 0,-168 0,-156 0,-156 0,-150 6,-144 12,-144 12,-144 49,-144 49,-144 55,-144 61,-150 61,-156 61,-156 61,-168 61,-168 61,-174 55,-180 49,-180"/>
<text text-anchor="middle" x="30.5" y="-159.5" font-family="sans" font-size="10.00">checkm2</text>
</g>
<!-- mags&#45;&gt;checkm2 -->
<g id="edge1" class="edge">
<title>mags&#45;&gt;checkm2</title>
<path fill="none" stroke="grey" stroke-width="2" d="M178.26,-222.56C150.93,-212.03 107.68,-195.19 70.5,-180 70.4,-179.96 70.31,-179.92 70.21,-179.88"/>
<polygon fill="grey" stroke="grey" stroke-width="2" points="71.62,-176.68 61.04,-176.08 68.94,-183.14 71.62,-176.68"/>
</g>
<!-- drep1 -->
<g id="node3" class="node">
<title>drep1</title>
<path fill="none" stroke="#5692d8" stroke-width="2" d="M139.5,-180C139.5,-180 91.5,-180 91.5,-180 85.5,-180 79.5,-174 79.5,-168 79.5,-168 79.5,-156 79.5,-156 79.5,-150 85.5,-144 91.5,-144 91.5,-144 139.5,-144 139.5,-144 145.5,-144 151.5,-150 151.5,-156 151.5,-156 151.5,-168 151.5,-168 151.5,-174 145.5,-180 139.5,-180"/>
<text text-anchor="middle" x="115.5" y="-165" font-family="sans" font-size="10.00">drep</text>
<text text-anchor="middle" x="115.5" y="-154" font-family="sans" font-size="10.00">S_ani=0.95</text>
</g>
<!-- mags&#45;&gt;drep1 -->
<g id="edge2" class="edge">
<title>mags&#45;&gt;drep1</title>
<path fill="none" stroke="grey" stroke-width="2" d="M183.25,-215.7C171.92,-206.88 157.97,-196.03 145.68,-186.47"/>
<polygon fill="grey" stroke="grey" stroke-width="2" points="147.53,-183.48 137.49,-180.1 143.24,-189.01 147.53,-183.48"/>
</g>
<!-- drep2 -->
<g id="node4" class="node">
<title>drep2</title>
<path fill="none" stroke="#5692d8" stroke-width="2" d="M229.5,-180C229.5,-180 181.5,-180 181.5,-180 175.5,-180 169.5,-174 169.5,-168 169.5,-168 169.5,-156 169.5,-156 169.5,-150 175.5,-144 181.5,-144 181.5,-144 229.5,-144 229.5,-144 235.5,-144 241.5,-150 241.5,-156 241.5,-156 241.5,-168 241.5,-168 241.5,-174 235.5,-180 229.5,-180"/>
<text text-anchor="middle" x="205.5" y="-165" font-family="sans" font-size="10.00">drep</text>
<text text-anchor="middle" x="205.5" y="-154" font-family="sans" font-size="10.00">S_ani=0.98</text>
</g>
<!-- mags&#45;&gt;drep2 -->
<g id="edge3" class="edge">
<title>mags&#45;&gt;drep2</title>
<path fill="none" stroke="grey" stroke-width="2" d="M205.5,-215.7C205.5,-207.98 205.5,-198.71 205.5,-190.11"/>
<polygon fill="grey" stroke="grey" stroke-width="2" points="209,-190.1 205.5,-180.1 202,-190.1 209,-190.1"/>
</g>
<!-- drep3 -->
<g id="node5" class="node">
<title>drep3</title>
<path fill="none" stroke="#5692d8" stroke-width="2" d="M319.5,-180C319.5,-180 271.5,-180 271.5,-180 265.5,-180 259.5,-174 259.5,-168 259.5,-168 259.5,-156 259.5,-156 259.5,-150 265.5,-144 271.5,-144 271.5,-144 319.5,-144 319.5,-144 325.5,-144 331.5,-150 331.5,-156 331.5,-156 331.5,-168 331.5,-168 331.5,-174 325.5,-180 319.5,-180"/>
<text text-anchor="middle" x="295.5" y="-165" font-family="sans" font-size="10.00">drep</text>
<text text-anchor="middle" x="295.5" y="-154" font-family="sans" font-size="10.00">S_ani=0.99</text>
</g>
<!-- mags&#45;&gt;drep3 -->
<g id="edge4" class="edge">
<title>mags&#45;&gt;drep3</title>
<path fill="none" stroke="grey" stroke-width="2" d="M227.75,-215.7C239.08,-206.88 253.03,-196.03 265.32,-186.47"/>
<polygon fill="grey" stroke="grey" stroke-width="2" points="267.76,-189.01 273.51,-180.1 263.47,-183.48 267.76,-189.01"/>
</g>
<!-- gtdbtk -->
<g id="node8" class="node">
<title>gtdbtk</title>
<path fill="none" stroke="#afd856" stroke-width="2" d="M391.5,-180C391.5,-180 361.5,-180 361.5,-180 355.5,-180 349.5,-174 349.5,-168 349.5,-168 349.5,-156 349.5,-156 349.5,-150 355.5,-144 361.5,-144 361.5,-144 391.5,-144 391.5,-144 397.5,-144 403.5,-150 403.5,-156 403.5,-156 403.5,-168 403.5,-168 403.5,-174 397.5,-180 391.5,-180"/>
<text text-anchor="middle" x="376.5" y="-159.5" font-family="sans" font-size="10.00">gtdbtk</text>
</g>
<!-- mags&#45;&gt;gtdbtk -->
<g id="edge5" class="edge">
<title>mags&#45;&gt;gtdbtk</title>
<path fill="none" stroke="grey" stroke-width="2" d="M232.61,-222.97C258.15,-213.38 297.64,-198.23 340.08,-180.05"/>
<polygon fill="grey" stroke="grey" stroke-width="2" points="341.67,-183.18 349.46,-176.01 338.89,-176.75 341.67,-183.18"/>
</g>
<!-- annotate -->
<g id="node6" class="node">
<title>annotate</title>
<path fill="none" stroke="#d8cb56" stroke-width="2" d="M394.5,-108C394.5,-108 358.5,-108 358.5,-108 352.5,-108 346.5,-102 346.5,-96 346.5,-96 346.5,-84 346.5,-84 346.5,-78 352.5,-72 358.5,-72 358.5,-72 394.5,-72 394.5,-72 400.5,-72 406.5,-78 406.5,-84 406.5,-84 406.5,-96 406.5,-96 406.5,-102 400.5,-108 394.5,-108"/>
<text text-anchor="middle" x="376.5" y="-93" font-family="sans" font-size="10.00">dram</text>
<text text-anchor="middle" x="376.5" y="-82" font-family="sans" font-size="10.00">annotate</text>
</g>
<!-- distill -->
<g id="node7" class="node">
<title>distill</title>
<path fill="none" stroke="#70d856" stroke-width="2" d="M391.5,-36C391.5,-36 361.5,-36 361.5,-36 355.5,-36 349.5,-30 349.5,-24 349.5,-24 349.5,-12 349.5,-12 349.5,-6 355.5,0 361.5,0 361.5,0 391.5,0 391.5,0 397.5,0 403.5,-6 403.5,-12 403.5,-12 403.5,-24 403.5,-24 403.5,-30 397.5,-36 391.5,-36"/>
<text text-anchor="middle" x="376.5" y="-21" font-family="sans" font-size="10.00">dram</text>
<text text-anchor="middle" x="376.5" y="-10" font-family="sans" font-size="10.00">distill</text>
</g>
<!-- annotate&#45;&gt;distill -->
<g id="edge7" class="edge">
<title>annotate&#45;&gt;distill</title>
<path fill="none" stroke="grey" stroke-width="2" d="M376.5,-71.7C376.5,-63.98 376.5,-54.71 376.5,-46.11"/>
<polygon fill="grey" stroke="grey" stroke-width="2" points="380,-46.1 376.5,-36.1 373,-46.1 380,-46.1"/>
</g>
<!-- gtdbtk&#45;&gt;annotate -->
<g id="edge6" class="edge">
<title>gtdbtk&#45;&gt;annotate</title>
<path fill="none" stroke="grey" stroke-width="2" d="M376.5,-143.7C376.5,-135.98 376.5,-126.71 376.5,-118.11"/>
<polygon fill="grey" stroke="grey" stroke-width="2" points="380,-118.1 376.5,-108.1 373,-118.1 380,-118.1"/>
</g>
</g>
</svg>
